<?xml version="1.0" encoding="utf-8" standalone="no"?>
<!DOCTYPE svg PUBLIC "-//W3C//DTD SVG 1.1//EN"
  "http://www.w3.org/Graphics/SVG/1.1/DTD/svg11.dtd">
<svg xmlns:xlink="http://www.w3.org/1999/xlink" width="288pt" height="288pt" viewBox="0 0 288 288" xmlns="http://www.w3.org/2000/svg" version="1.1">
 <metadata>
  <rdf:RDF xmlns:dc="http://purl.org/dc/elements/1.1/" xmlns:cc="http://creativecommons.org/ns#" xmlns:rdf="http://www.w3.org/1999/02/22-rdf-syntax-ns#">
   <cc:Work>
    <dc:type rdf:resource="http://purl.org/dc/dcmitype/StillImage"/>
    <dc:date>2025-05-19T18:04:55.758285</dc:date>
    <dc:format>image/svg+xml</dc:format>
    <dc:creator>
     <cc:Agent>
      <dc:title>Matplotlib v3.10.3, https://matplotlib.org/</dc:title>
     </cc:Agent>
    </dc:creator>
   </cc:Work>
  </rdf:RDF>
 </metadata>
 <defs>
  <style type="text/css">*{stroke-linejoin: round; stroke-linecap: butt}</style>
 </defs>
 <g id="figure_1">
  <g id="patch_1">
   <path d="M 0 288 
L 288 288 
L 288 0 
L 0 0 
z
" style="fill: #ffffff"/>
  </g>
  <g id="axes_1">
   <g id="patch_2">
    <path d="M 7.788333 284.99976 
L 284.99976 284.99976 
L 284.99976 3.00024 
L 7.788333 3.00024 
z
" style="fill: #ffffff"/>
   </g>
   <g id="patch_3">
    <path d="M 272.399241 155.394442 
L 260.104116 161.220879 
L 263.792654 155.447612 
L 26.496753 155.447612 
L 26.496753 155.341273 
L 263.792654 155.341273 
L 260.104116 149.568006 
z
" style="stroke: #000000; stroke-linejoin: miter"/>
   </g>
   <g id="patch_4">
    <path d="M 26.496753 15.8184 
L 32.604653 27.546941 
L 26.552677 24.028379 
L 26.552677 272.1816 
L 26.440829 272.1816 
L 26.440829 24.028379 
L 20.388852 27.546941 
z
" style="stroke: #000000; stroke-linejoin: miter"/>
   </g>
   <g id="matplotlib.axis_1">
    <g id="text_1">
     <!-- time (t) -->
     <g transform="translate(215.217899 175.777164) scale(0.18 -0.18)">
      <defs>
       <path id="DejaVuSans-74" d="M 1172 4494 
L 1172 3500 
L 2356 3500 
L 2356 3053 
L 1172 3053 
L 1172 1153 
Q 1172 725 1289 603 
Q 1406 481 1766 481 
L 2356 481 
L 2356 0 
L 1766 0 
Q 1100 0 847 248 
Q 594 497 594 1153 
L 594 3053 
L 172 3053 
L 172 3500 
L 594 3500 
L 594 4494 
L 1172 4494 
z
" transform="scale(0.015625)"/>
       <path id="DejaVuSans-69" d="M 603 3500 
L 1178 3500 
L 1178 0 
L 603 0 
L 603 3500 
z
M 603 4863 
L 1178 4863 
L 1178 4134 
L 603 4134 
L 603 4863 
z
" transform="scale(0.015625)"/>
       <path id="DejaVuSans-6d" d="M 3328 2828 
Q 3544 3216 3844 3400 
Q 4144 3584 4550 3584 
Q 5097 3584 5394 3201 
Q 5691 2819 5691 2113 
L 5691 0 
L 5113 0 
L 5113 2094 
Q 5113 2597 4934 2840 
Q 4756 3084 4391 3084 
Q 3944 3084 3684 2787 
Q 3425 2491 3425 1978 
L 3425 0 
L 2847 0 
L 2847 2094 
Q 2847 2600 2669 2842 
Q 2491 3084 2119 3084 
Q 1678 3084 1418 2786 
Q 1159 2488 1159 1978 
L 1159 0 
L 581 0 
L 581 3500 
L 1159 3500 
L 1159 2956 
Q 1356 3278 1631 3431 
Q 1906 3584 2284 3584 
Q 2666 3584 2933 3390 
Q 3200 3197 3328 2828 
z
" transform="scale(0.015625)"/>
       <path id="DejaVuSans-65" d="M 3597 1894 
L 3597 1613 
L 953 1613 
Q 991 1019 1311 708 
Q 1631 397 2203 397 
Q 2534 397 2845 478 
Q 3156 559 3463 722 
L 3463 178 
Q 3153 47 2828 -22 
Q 2503 -91 2169 -91 
Q 1331 -91 842 396 
Q 353 884 353 1716 
Q 353 2575 817 3079 
Q 1281 3584 2069 3584 
Q 2775 3584 3186 3129 
Q 3597 2675 3597 1894 
z
M 3022 2063 
Q 3016 2534 2758 2815 
Q 2500 3097 2075 3097 
Q 1594 3097 1305 2825 
Q 1016 2553 972 2059 
L 3022 2063 
z
" transform="scale(0.015625)"/>
       <path id="DejaVuSans-20" transform="scale(0.015625)"/>
       <path id="DejaVuSans-28" d="M 1984 4856 
Q 1566 4138 1362 3434 
Q 1159 2731 1159 2009 
Q 1159 1288 1364 580 
Q 1569 -128 1984 -844 
L 1484 -844 
Q 1016 -109 783 600 
Q 550 1309 550 2009 
Q 550 2706 781 3412 
Q 1013 4119 1484 4856 
L 1984 4856 
z
" transform="scale(0.015625)"/>
       <path id="DejaVuSans-29" d="M 513 4856 
L 1013 4856 
Q 1481 4119 1714 3412 
Q 1947 2706 1947 2009 
Q 1947 1309 1714 600 
Q 1481 -109 1013 -844 
L 513 -844 
Q 928 -128 1133 580 
Q 1338 1288 1338 2009 
Q 1338 2731 1133 3434 
Q 928 4138 513 4856 
z
" transform="scale(0.015625)"/>
      </defs>
      <use xlink:href="#DejaVuSans-74"/>
      <use xlink:href="#DejaVuSans-69" transform="translate(39.208984 0)"/>
      <use xlink:href="#DejaVuSans-6d" transform="translate(66.992188 0)"/>
      <use xlink:href="#DejaVuSans-65" transform="translate(164.404297 0)"/>
      <use xlink:href="#DejaVuSans-20" transform="translate(225.927734 0)"/>
      <use xlink:href="#DejaVuSans-28" transform="translate(257.714844 0)"/>
      <use xlink:href="#DejaVuSans-74" transform="translate(296.728516 0)"/>
      <use xlink:href="#DejaVuSans-29" transform="translate(335.9375 0)"/>
     </g>
    </g>
   </g>
   <g id="matplotlib.axis_2">
    <g id="text_2">
     <!-- Field -->
     <g transform="translate(16.677581 108.376034) rotate(-90) scale(0.18 -0.18)">
      <defs>
       <path id="DejaVuSans-46" d="M 628 4666 
L 3309 4666 
L 3309 4134 
L 1259 4134 
L 1259 2759 
L 3109 2759 
L 3109 2228 
L 1259 2228 
L 1259 0 
L 628 0 
L 628 4666 
z
" transform="scale(0.015625)"/>
       <path id="DejaVuSans-6c" d="M 603 4863 
L 1178 4863 
L 1178 0 
L 603 0 
L 603 4863 
z
" transform="scale(0.015625)"/>
       <path id="DejaVuSans-64" d="M 2906 2969 
L 2906 4863 
L 3481 4863 
L 3481 0 
L 2906 0 
L 2906 525 
Q 2725 213 2448 61 
Q 2172 -91 1784 -91 
Q 1150 -91 751 415 
Q 353 922 353 1747 
Q 353 2572 751 3078 
Q 1150 3584 1784 3584 
Q 2172 3584 2448 3432 
Q 2725 3281 2906 2969 
z
M 947 1747 
Q 947 1113 1208 752 
Q 1469 391 1925 391 
Q 2381 391 2643 752 
Q 2906 1113 2906 1747 
Q 2906 2381 2643 2742 
Q 2381 3103 1925 3103 
Q 1469 3103 1208 2742 
Q 947 2381 947 1747 
z
" transform="scale(0.015625)"/>
      </defs>
      <use xlink:href="#DejaVuSans-46"/>
      <use xlink:href="#DejaVuSans-69" transform="translate(50.269531 0)"/>
      <use xlink:href="#DejaVuSans-65" transform="translate(78.052734 0)"/>
      <use xlink:href="#DejaVuSans-6c" transform="translate(139.576172 0)"/>
      <use xlink:href="#DejaVuSans-64" transform="translate(167.359375 0)"/>
     </g>
    </g>
   </g>
   <g id="line2d_1">
    <path d="M 37.674139 155.394442 
L 62.280792 155.491746 
L 63.622973 155.555752 
L 64.51776 155.376785 
L 66.307335 154.912968 
L 66.90386 155.057318 
L 67.500385 155.439608 
L 68.991697 156.583683 
L 69.439091 156.56773 
L 69.886485 156.23042 
L 70.333878 155.569076 
L 71.974322 152.629956 
L 72.272584 152.599732 
L 72.570847 152.881449 
L 72.869109 153.495393 
L 73.316503 154.995734 
L 74.807815 161.053486 
L 75.106078 161.36736 
L 75.255209 161.298231 
L 75.553471 160.661678 
L 75.851734 159.346423 
L 76.299128 156.227988 
L 77.79044 144.309699 
L 78.088702 143.78896 
L 78.237834 143.969177 
L 78.536096 145.280636 
L 78.834359 147.860362 
L 79.281752 153.798728 
L 80.623933 174.189111 
L 80.922196 175.920218 
L 81.071327 176.052123 
L 81.220458 175.649958 
L 81.518721 173.184894 
L 81.966114 165.497453 
L 82.562639 149.824984 
L 83.457427 126.743823 
L 83.755689 122.696816 
L 83.90482 121.78885 
L 84.053952 121.709049 
L 84.203083 122.497025 
L 84.501345 126.726284 
L 84.948739 139.277113 
L 85.694395 170.695916 
L 86.440051 198.888088 
L 86.738314 204.635139 
L 86.887445 205.79848 
L 87.036576 205.714767 
L 87.185708 204.340963 
L 87.48397 197.715169 
L 87.931364 178.948575 
L 88.826151 124.511998 
L 89.422676 94.907867 
L 89.720938 87.462515 
L 89.87007 86.137884 
L 90.019201 86.531281 
L 90.168332 88.67946 
L 90.466595 98.161386 
L 90.913988 123.860882 
L 92.554432 237.835848 
L 92.852694 242.570715 
L 93.001826 241.726523 
L 93.300088 233.52493 
L 93.59835 217.173644 
L 94.194875 166.349801 
L 95.238794 73.507367 
L 95.537057 59.558769 
L 95.835319 54.868653 
L 95.98445 56.242965 
L 96.282713 66.375445 
L 96.730106 97.982719 
L 97.624894 191.615085 
L 98.221419 243.292625 
L 98.519681 257.453289 
L 98.668812 260.826791 
L 98.817944 261.588079 
L 98.967075 259.71452 
L 99.265337 248.309485 
L 99.712731 214.656359 
L 101.353175 61.204279 
L 101.651437 52.949444 
L 101.800568 52.625637 
L 101.949699 54.845306 
L 102.247962 66.549944 
L 102.695356 99.355738 
L 104.186668 233.25753 
L 104.48493 244.380611 
L 104.634062 246.584906 
L 104.783193 246.504418 
L 104.932324 244.177587 
L 105.230587 233.218923 
L 105.67798 203.938692 
L 107.169293 91.137684 
L 107.467555 82.537504 
L 107.616686 81.032644 
L 107.765817 81.397737 
L 107.914949 83.577905 
L 108.213211 92.942904 
L 108.660605 116.871016 
L 110.002786 198.874465 
L 110.301048 207.712302 
L 110.599311 210.945491 
L 110.748442 210.449954 
L 111.046705 205.524403 
L 111.494098 190.070428 
L 112.985411 125.165983 
L 113.283673 119.3021 
L 113.581936 117.377478 
L 113.731067 117.868453 
L 114.029329 121.499664 
L 114.476723 132.219597 
L 115.968035 174.646943 
L 116.266298 178.204558 
L 116.415429 179.030485 
L 116.56456 179.229251 
L 116.713691 178.826657 
L 117.011954 176.389621 
L 117.459348 169.583631 
L 118.801529 145.702042 
L 119.248922 142.186834 
L 119.398054 141.762908 
L 119.547185 141.703291 
L 119.696316 141.988601 
L 119.994578 143.47878 
L 120.441972 147.434089 
L 121.635022 159.596289 
L 122.082416 162.00662 
L 122.380678 162.60214 
L 122.529809 162.605276 
L 122.828072 162.084614 
L 123.275466 160.276297 
L 124.766778 152.826614 
L 125.214172 151.967838 
L 125.512434 151.893728 
L 125.810697 152.1676 
L 126.25809 153.060673 
L 127.749403 156.586852 
L 128.196796 156.984153 
L 128.495059 157.019705 
L 128.942452 156.78514 
L 129.538977 156.129528 
L 130.582896 154.915055 
L 131.179421 154.557362 
L 131.626815 154.511783 
L 132.223339 154.719514 
L 132.968996 155.274089 
L 134.162045 156.213815 
L 134.75857 156.381767 
L 135.205964 156.267994 
L 135.653358 155.925817 
L 136.249883 155.167387 
L 137.442933 153.575563 
L 137.741195 153.436085 
L 138.039458 153.49174 
L 138.33772 153.769416 
L 138.785114 154.609721 
L 139.381639 156.353733 
L 140.276426 159.027689 
L 140.574688 159.502358 
L 140.872951 159.593329 
L 141.171213 159.229265 
L 141.469476 158.37973 
L 141.91687 156.25524 
L 143.557313 147.062887 
L 143.706444 146.893171 
L 143.855576 146.939394 
L 144.004707 147.214918 
L 144.302969 148.479646 
L 144.750363 152.091681 
L 145.496019 161.156775 
L 146.241675 169.349649 
L 146.539938 170.939239 
L 146.689069 171.192987 
L 146.8382 171.044965 
L 147.136463 169.475713 
L 147.434725 166.20372 
L 147.882119 158.500445 
L 149.2243 131.33528 
L 149.522562 128.809303 
L 149.671694 128.483963 
L 149.820825 128.842822 
L 150.119087 131.692521 
L 150.41735 137.333045 
L 150.864743 150.216977 
L 152.206925 193.39669 
L 152.505187 197.049709 
L 152.654318 197.389628 
L 152.803449 196.663426 
L 153.101712 191.944643 
L 153.549106 177.195697 
L 154.294762 139.408705 
L 155.040418 104.751686 
L 155.33868 97.313869 
L 155.487812 95.601818 
L 155.636943 95.356778 
L 155.786074 96.631689 
L 156.084337 103.759936 
L 156.53173 124.917091 
L 157.277386 177.018121 
L 157.873911 215.770063 
L 158.321305 232.078371 
L 158.470436 234.020736 
L 158.619567 234.024836 
L 158.768699 232.046296 
L 159.066961 222.218294 
L 159.514355 194.425238 
L 161.154798 66.869658 
L 161.453061 60.677013 
L 161.602192 61.053771 
L 161.751323 63.796679 
L 162.049586 76.169159 
L 162.496979 109.604318 
L 163.988292 247.181496 
L 164.286554 258.166906 
L 164.435685 259.922727 
L 164.584817 259.087398 
L 164.883079 249.740259 
L 165.181342 230.973377 
L 165.777867 173.248414 
L 166.672654 81.197799 
L 167.120048 55.0229 
L 167.41831 49.717666 
L 167.567441 50.984632 
L 167.865704 61.153923 
L 168.313098 92.976483 
L 169.953541 243.431165 
L 170.251804 252.404376 
L 170.400935 253.268389 
L 170.550066 251.705274 
L 170.848328 241.631515 
L 171.295722 211.869044 
L 172.936166 79.795287 
L 173.234428 72.752874 
L 173.383559 72.3527 
L 173.532691 74.00825 
L 173.830953 83.102207 
L 174.278347 108.584839 
L 175.769659 209.929757 
L 176.067922 218.198974 
L 176.217053 219.888937 
L 176.366184 219.940188 
L 176.515315 218.398438 
L 176.813578 210.912035 
L 177.260971 190.937514 
L 178.603152 120.48024 
L 178.901415 112.534973 
L 179.199677 109.285148 
L 179.348809 109.434381 
L 179.49794 110.712995 
L 179.796202 116.336359 
L 180.243596 130.670758 
L 181.585777 178.622109 
L 181.88404 183.690345 
L 182.182302 185.593686 
L 182.331433 185.374701 
L 182.629696 182.796652 
L 183.077089 174.646649 
L 184.568402 141.23818 
L 184.866664 138.280837 
L 185.164927 137.274977 
L 185.314058 137.478817 
L 185.61232 139.1509 
L 186.059714 144.115106 
L 187.401895 162.100365 
L 187.849289 164.876459 
L 188.147551 165.353917 
L 188.296683 165.202215 
L 188.594945 164.215437 
L 189.042339 161.448221 
L 190.38452 151.952508 
L 190.831913 150.581606 
L 191.130176 150.379462 
L 191.428438 150.689205 
L 191.875832 151.887483 
L 193.367144 157.012835 
L 193.814538 157.632353 
L 194.112801 157.707805 
L 194.411063 157.54747 
L 194.858457 156.980109 
L 196.349769 154.69733 
L 196.797163 154.441152 
L 197.244556 154.44332 
L 197.841081 154.737641 
L 199.332394 155.669522 
L 199.928919 155.775012 
L 200.674575 155.68088 
L 202.762412 155.261454 
L 204.104593 155.336665 
L 206.19243 155.436358 
L 214.842042 155.393536 
L 261.221855 155.394442 
L 261.221855 155.394442 
" clip-path="url(#p1017c86518)" style="fill: none; stroke: #1f77b4; stroke-width: 1.5; stroke-linecap: square"/>
   </g>
  </g>
 </g>
 <defs>
  <clipPath id="p1017c86518">
   <rect x="7.788333" y="3.00024" width="277.211427" height="281.99952"/>
  </clipPath>
 </defs>
</svg>
