<?xml version="1.0" encoding="utf-8" standalone="no"?>
<!DOCTYPE svg PUBLIC "-//W3C//DTD SVG 1.1//EN"
  "http://www.w3.org/Graphics/SVG/1.1/DTD/svg11.dtd">
<svg xmlns:xlink="http://www.w3.org/1999/xlink" width="288pt" height="288pt" viewBox="0 0 288 288" xmlns="http://www.w3.org/2000/svg" version="1.1">
 <metadata>
  <rdf:RDF xmlns:dc="http://purl.org/dc/elements/1.1/" xmlns:cc="http://creativecommons.org/ns#" xmlns:rdf="http://www.w3.org/1999/02/22-rdf-syntax-ns#">
   <cc:Work>
    <dc:type rdf:resource="http://purl.org/dc/dcmitype/StillImage"/>
    <dc:date>2025-05-19T18:05:01.852294</dc:date>
    <dc:format>image/svg+xml</dc:format>
    <dc:creator>
     <cc:Agent>
      <dc:title>Matplotlib v3.10.3, https://matplotlib.org/</dc:title>
     </cc:Agent>
    </dc:creator>
   </cc:Work>
  </rdf:RDF>
 </metadata>
 <defs>
  <style type="text/css">*{stroke-linejoin: round; stroke-linecap: butt}</style>
 </defs>
 <g id="figure_1">
  <g id="patch_1">
   <path d="M 0 288 
L 288 288 
L 288 0 
L 0 0 
z
" style="fill: #ffffff"/>
  </g>
  <g id="axes_1">
   <g id="patch_2">
    <path d="M 7.788333 277.244951 
L 284.99976 277.244951 
L 284.99976 3.00024 
L 7.788333 3.00024 
z
" style="fill: #ffffff"/>
   </g>
   <g id="patch_3">
    <path d="M 272.399241 258.698468 
L 260.104116 264.779282 
L 263.792654 258.698509 
L 26.496753 258.698509 
L 26.496753 258.698427 
L 263.792654 258.698427 
L 260.104116 252.617654 
z
" style="stroke: #000000; stroke-linejoin: miter"/>
   </g>
   <g id="patch_4">
    <path d="M 26.496753 15.465909 
L 32.604653 27.706508 
L 26.552677 24.034328 
L 26.552677 258.698468 
L 26.440829 258.698468 
L 26.440829 24.034328 
L 20.388852 27.706508 
z
" style="stroke: #000000; stroke-linejoin: miter"/>
   </g>
   <g id="matplotlib.axis_1">
    <g id="text_1">
     <!-- Time delay ($\tau$) -->
     <g transform="translate(81.324046 281.212715) scale(0.18 -0.18)">
      <defs>
       <path id="DejaVuSans-54" d="M -19 4666 
L 3928 4666 
L 3928 4134 
L 2272 4134 
L 2272 0 
L 1638 0 
L 1638 4134 
L -19 4134 
L -19 4666 
z
" transform="scale(0.015625)"/>
       <path id="DejaVuSans-69" d="M 603 3500 
L 1178 3500 
L 1178 0 
L 603 0 
L 603 3500 
z
M 603 4863 
L 1178 4863 
L 1178 4134 
L 603 4134 
L 603 4863 
z
" transform="scale(0.015625)"/>
       <path id="DejaVuSans-6d" d="M 3328 2828 
Q 3544 3216 3844 3400 
Q 4144 3584 4550 3584 
Q 5097 3584 5394 3201 
Q 5691 2819 5691 2113 
L 5691 0 
L 5113 0 
L 5113 2094 
Q 5113 2597 4934 2840 
Q 4756 3084 4391 3084 
Q 3944 3084 3684 2787 
Q 3425 2491 3425 1978 
L 3425 0 
L 2847 0 
L 2847 2094 
Q 2847 2600 2669 2842 
Q 2491 3084 2119 3084 
Q 1678 3084 1418 2786 
Q 1159 2488 1159 1978 
L 1159 0 
L 581 0 
L 581 3500 
L 1159 3500 
L 1159 2956 
Q 1356 3278 1631 3431 
Q 1906 3584 2284 3584 
Q 2666 3584 2933 3390 
Q 3200 3197 3328 2828 
z
" transform="scale(0.015625)"/>
       <path id="DejaVuSans-65" d="M 3597 1894 
L 3597 1613 
L 953 1613 
Q 991 1019 1311 708 
Q 1631 397 2203 397 
Q 2534 397 2845 478 
Q 3156 559 3463 722 
L 3463 178 
Q 3153 47 2828 -22 
Q 2503 -91 2169 -91 
Q 1331 -91 842 396 
Q 353 884 353 1716 
Q 353 2575 817 3079 
Q 1281 3584 2069 3584 
Q 2775 3584 3186 3129 
Q 3597 2675 3597 1894 
z
M 3022 2063 
Q 3016 2534 2758 2815 
Q 2500 3097 2075 3097 
Q 1594 3097 1305 2825 
Q 1016 2553 972 2059 
L 3022 2063 
z
" transform="scale(0.015625)"/>
       <path id="DejaVuSans-20" transform="scale(0.015625)"/>
       <path id="DejaVuSans-64" d="M 2906 2969 
L 2906 4863 
L 3481 4863 
L 3481 0 
L 2906 0 
L 2906 525 
Q 2725 213 2448 61 
Q 2172 -91 1784 -91 
Q 1150 -91 751 415 
Q 353 922 353 1747 
Q 353 2572 751 3078 
Q 1150 3584 1784 3584 
Q 2172 3584 2448 3432 
Q 2725 3281 2906 2969 
z
M 947 1747 
Q 947 1113 1208 752 
Q 1469 391 1925 391 
Q 2381 391 2643 752 
Q 2906 1113 2906 1747 
Q 2906 2381 2643 2742 
Q 2381 3103 1925 3103 
Q 1469 3103 1208 2742 
Q 947 2381 947 1747 
z
" transform="scale(0.015625)"/>
       <path id="DejaVuSans-6c" d="M 603 4863 
L 1178 4863 
L 1178 0 
L 603 0 
L 603 4863 
z
" transform="scale(0.015625)"/>
       <path id="DejaVuSans-61" d="M 2194 1759 
Q 1497 1759 1228 1600 
Q 959 1441 959 1056 
Q 959 750 1161 570 
Q 1363 391 1709 391 
Q 2188 391 2477 730 
Q 2766 1069 2766 1631 
L 2766 1759 
L 2194 1759 
z
M 3341 1997 
L 3341 0 
L 2766 0 
L 2766 531 
Q 2569 213 2275 61 
Q 1981 -91 1556 -91 
Q 1019 -91 701 211 
Q 384 513 384 1019 
Q 384 1609 779 1909 
Q 1175 2209 1959 2209 
L 2766 2209 
L 2766 2266 
Q 2766 2663 2505 2880 
Q 2244 3097 1772 3097 
Q 1472 3097 1187 3025 
Q 903 2953 641 2809 
L 641 3341 
Q 956 3463 1253 3523 
Q 1550 3584 1831 3584 
Q 2591 3584 2966 3190 
Q 3341 2797 3341 1997 
z
" transform="scale(0.015625)"/>
       <path id="DejaVuSans-79" d="M 2059 -325 
Q 1816 -950 1584 -1140 
Q 1353 -1331 966 -1331 
L 506 -1331 
L 506 -850 
L 844 -850 
Q 1081 -850 1212 -737 
Q 1344 -625 1503 -206 
L 1606 56 
L 191 3500 
L 800 3500 
L 1894 763 
L 2988 3500 
L 3597 3500 
L 2059 -325 
z
" transform="scale(0.015625)"/>
       <path id="DejaVuSans-28" d="M 1984 4856 
Q 1566 4138 1362 3434 
Q 1159 2731 1159 2009 
Q 1159 1288 1364 580 
Q 1569 -128 1984 -844 
L 1484 -844 
Q 1016 -109 783 600 
Q 550 1309 550 2009 
Q 550 2706 781 3412 
Q 1013 4119 1484 4856 
L 1984 4856 
z
" transform="scale(0.015625)"/>
       <path id="DejaVuSans-Oblique-3c4" d="M 2103 638 
Q 2188 488 2525 488 
L 2800 488 
L 2706 0 
L 2363 0 
Q 1800 0 1600 300 
Q 1403 606 1534 1269 
L 1856 2925 
L 541 2925 
L 653 3500 
L 3881 3500 
L 3769 2925 
L 2444 2925 
L 2113 1234 
Q 2025 781 2103 638 
z
" transform="scale(0.015625)"/>
       <path id="DejaVuSans-29" d="M 513 4856 
L 1013 4856 
Q 1481 4119 1714 3412 
Q 1947 2706 1947 2009 
Q 1947 1309 1714 600 
Q 1481 -109 1013 -844 
L 513 -844 
Q 928 -128 1133 580 
Q 1338 1288 1338 2009 
Q 1338 2731 1133 3434 
Q 928 4138 513 4856 
z
" transform="scale(0.015625)"/>
      </defs>
      <use xlink:href="#DejaVuSans-54" transform="translate(0 0.015625)"/>
      <use xlink:href="#DejaVuSans-69" transform="translate(61.083984 0.015625)"/>
      <use xlink:href="#DejaVuSans-6d" transform="translate(88.867188 0.015625)"/>
      <use xlink:href="#DejaVuSans-65" transform="translate(186.279297 0.015625)"/>
      <use xlink:href="#DejaVuSans-20" transform="translate(247.802734 0.015625)"/>
      <use xlink:href="#DejaVuSans-64" transform="translate(279.589844 0.015625)"/>
      <use xlink:href="#DejaVuSans-65" transform="translate(343.066406 0.015625)"/>
      <use xlink:href="#DejaVuSans-6c" transform="translate(404.589844 0.015625)"/>
      <use xlink:href="#DejaVuSans-61" transform="translate(432.373047 0.015625)"/>
      <use xlink:href="#DejaVuSans-79" transform="translate(493.652344 0.015625)"/>
      <use xlink:href="#DejaVuSans-20" transform="translate(552.832031 0.015625)"/>
      <use xlink:href="#DejaVuSans-28" transform="translate(584.619141 0.015625)"/>
      <use xlink:href="#DejaVuSans-Oblique-3c4" transform="translate(623.632812 0.015625)"/>
      <use xlink:href="#DejaVuSans-29" transform="translate(683.837891 0.015625)"/>
     </g>
    </g>
   </g>
   <g id="matplotlib.axis_2">
    <g id="text_2">
     <!-- Intensity -->
     <g transform="translate(16.677581 124.446153) rotate(-90) scale(0.18 -0.18)">
      <defs>
       <path id="DejaVuSans-49" d="M 628 4666 
L 1259 4666 
L 1259 0 
L 628 0 
L 628 4666 
z
" transform="scale(0.015625)"/>
       <path id="DejaVuSans-6e" d="M 3513 2113 
L 3513 0 
L 2938 0 
L 2938 2094 
Q 2938 2591 2744 2837 
Q 2550 3084 2163 3084 
Q 1697 3084 1428 2787 
Q 1159 2491 1159 1978 
L 1159 0 
L 581 0 
L 581 3500 
L 1159 3500 
L 1159 2956 
Q 1366 3272 1645 3428 
Q 1925 3584 2291 3584 
Q 2894 3584 3203 3211 
Q 3513 2838 3513 2113 
z
" transform="scale(0.015625)"/>
       <path id="DejaVuSans-74" d="M 1172 4494 
L 1172 3500 
L 2356 3500 
L 2356 3053 
L 1172 3053 
L 1172 1153 
Q 1172 725 1289 603 
Q 1406 481 1766 481 
L 2356 481 
L 2356 0 
L 1766 0 
Q 1100 0 847 248 
Q 594 497 594 1153 
L 594 3053 
L 172 3053 
L 172 3500 
L 594 3500 
L 594 4494 
L 1172 4494 
z
" transform="scale(0.015625)"/>
       <path id="DejaVuSans-73" d="M 2834 3397 
L 2834 2853 
Q 2591 2978 2328 3040 
Q 2066 3103 1784 3103 
Q 1356 3103 1142 2972 
Q 928 2841 928 2578 
Q 928 2378 1081 2264 
Q 1234 2150 1697 2047 
L 1894 2003 
Q 2506 1872 2764 1633 
Q 3022 1394 3022 966 
Q 3022 478 2636 193 
Q 2250 -91 1575 -91 
Q 1294 -91 989 -36 
Q 684 19 347 128 
L 347 722 
Q 666 556 975 473 
Q 1284 391 1588 391 
Q 1994 391 2212 530 
Q 2431 669 2431 922 
Q 2431 1156 2273 1281 
Q 2116 1406 1581 1522 
L 1381 1569 
Q 847 1681 609 1914 
Q 372 2147 372 2553 
Q 372 3047 722 3315 
Q 1072 3584 1716 3584 
Q 2034 3584 2315 3537 
Q 2597 3491 2834 3397 
z
" transform="scale(0.015625)"/>
      </defs>
      <use xlink:href="#DejaVuSans-49"/>
      <use xlink:href="#DejaVuSans-6e" transform="translate(29.492188 0)"/>
      <use xlink:href="#DejaVuSans-74" transform="translate(92.871094 0)"/>
      <use xlink:href="#DejaVuSans-65" transform="translate(132.080078 0)"/>
      <use xlink:href="#DejaVuSans-6e" transform="translate(193.603516 0)"/>
      <use xlink:href="#DejaVuSans-73" transform="translate(256.982422 0)"/>
      <use xlink:href="#DejaVuSans-69" transform="translate(309.082031 0)"/>
      <use xlink:href="#DejaVuSans-74" transform="translate(336.865234 0)"/>
      <use xlink:href="#DejaVuSans-79" transform="translate(376.074219 0)"/>
     </g>
    </g>
   </g>
   <g id="line2d_1">
    <path d="M 37.674139 231.058016 
L 40.507632 231.060061 
L 42.893732 230.932107 
L 44.385044 231.232885 
L 45.428963 231.338405 
L 46.174619 231.194899 
L 46.920275 230.820249 
L 47.964194 230.248941 
L 48.411587 230.214525 
L 48.858981 230.391481 
L 49.455506 230.905333 
L 50.648556 232.022649 
L 51.09595 232.198787 
L 51.543343 232.145084 
L 51.990737 231.787727 
L 52.438131 231.060594 
L 53.034656 229.578927 
L 53.780312 227.757424 
L 54.078574 227.421707 
L 54.376837 227.461873 
L 54.675099 227.90569 
L 55.122493 229.212306 
L 56.315543 233.39058 
L 56.762936 234.215584 
L 57.061199 234.446821 
L 57.359461 234.395825 
L 57.657724 233.996984 
L 57.955986 233.14903 
L 58.40338 230.829899 
L 58.999905 225.906006 
L 59.745561 219.858277 
L 60.043823 218.851161 
L 60.192955 218.826033 
L 60.342086 219.141033 
L 60.640348 220.751569 
L 61.087742 225.046359 
L 61.982529 234.398935 
L 62.429923 237.045465 
L 62.728186 237.957705 
L 63.026448 238.326431 
L 63.175579 238.318935 
L 63.32471 238.167243 
L 63.622973 237.305552 
L 63.921235 235.398112 
L 64.219498 232.070817 
L 64.666892 224.098116 
L 65.71081 201.901616 
L 66.009073 199.643771 
L 66.158204 199.783428 
L 66.307335 200.798264 
L 66.605598 205.248485 
L 67.202123 220.160985 
L 67.798647 234.11156 
L 68.246041 239.856967 
L 68.544304 241.589119 
L 68.842566 242.289072 
L 68.991697 242.391258 
L 69.140829 242.347452 
L 69.28996 242.126023 
L 69.588222 240.842349 
L 69.886485 237.672263 
L 70.184747 231.655917 
L 70.632141 216.396873 
L 71.676059 173.64949 
L 71.974322 169.959541 
L 72.123453 170.637834 
L 72.421716 176.941522 
L 72.869109 195.661083 
L 73.614765 229.532928 
L 74.062159 240.414727 
L 74.360422 243.388721 
L 74.658684 244.364971 
L 74.956947 244.540942 
L 75.106078 244.494491 
L 75.255209 244.307776 
L 75.40434 243.854193 
L 75.702603 241.374963 
L 76.000865 235.319295 
L 76.299128 224.29831 
L 76.746521 198.588508 
L 77.492177 152.125234 
L 77.79044 143.199405 
L 77.939571 142.277803 
L 78.088702 143.857591 
L 78.386965 154.034386 
L 78.834359 181.604968 
L 79.580015 227.722341 
L 80.027408 241.012678 
L 80.325671 244.114147 
L 80.623933 244.835862 
L 81.071327 244.861746 
L 81.220458 244.752919 
L 81.36959 244.383646 
L 81.518721 243.51926 
L 81.816983 239.208025 
L 82.115246 229.821949 
L 82.562639 204.780788 
L 83.457427 144.24178 
L 83.755689 135.692178 
L 83.90482 135.33638 
L 84.053952 137.671841 
L 84.352214 149.672108 
L 84.948739 190.908492 
L 85.545264 227.594477 
L 85.992658 240.890114 
L 86.29092 243.995081 
L 86.589183 244.769029 
L 86.887445 244.828363 
L 87.036576 244.785684 
L 87.185708 244.625214 
L 87.334839 244.197002 
L 87.48397 243.296555 
L 87.782232 239.163215 
L 88.080495 230.65294 
L 88.527889 208.999043 
L 89.422676 160.271168 
L 89.720938 154.356741 
L 89.87007 154.585717 
L 90.019201 156.940405 
L 90.317463 167.280043 
L 91.808776 237.386658 
L 92.107038 241.687039 
L 92.405301 243.390341 
L 92.703563 243.800199 
L 92.852694 243.774954 
L 93.001826 243.626383 
L 93.300088 242.735955 
L 93.59835 240.339387 
L 93.896613 235.502205 
L 94.344007 222.863653 
L 95.387925 188.107491 
L 95.686188 185.160347 
L 95.835319 185.597868 
L 96.133581 190.072281 
L 96.580975 203.270404 
L 97.475763 230.829615 
L 97.923156 237.651841 
L 98.221419 239.696622 
L 98.519681 240.480369 
L 98.668812 240.567911 
L 98.817944 240.502488 
L 99.116206 239.921565 
L 99.414469 238.570099 
L 99.712731 236.138818 
L 100.160125 230.128276 
L 101.353175 211.473092 
L 101.651437 210.413102 
L 101.800568 210.737743 
L 102.098831 212.941234 
L 102.546224 218.96324 
L 103.441012 231.43049 
L 103.888405 234.76533 
L 104.186668 235.870998 
L 104.48493 236.323726 
L 104.783193 236.29658 
L 105.081455 235.866715 
L 105.379718 235.025967 
L 105.827111 232.932191 
L 107.318424 224.128255 
L 107.616686 223.826659 
L 107.765817 223.969734 
L 108.06408 224.776499 
L 108.660605 227.707533 
L 109.406261 231.384229 
L 109.853655 232.736781 
L 110.301048 233.392075 
L 110.599311 233.508619 
L 110.897573 233.40945 
L 111.344967 232.893296 
L 111.792361 231.977276 
L 113.283673 228.350504 
L 113.581936 228.125888 
L 113.880198 228.19016 
L 114.17846 228.527229 
L 114.625854 229.428364 
L 116.117166 232.826522 
L 116.56456 233.253343 
L 116.862823 233.305738 
L 117.161085 233.15191 
L 117.459348 232.770001 
L 117.906741 231.730199 
L 118.503266 229.538957 
L 119.398054 226.064343 
L 119.696316 225.512364 
L 119.845447 225.439116 
L 119.994578 225.515454 
L 120.292841 226.123988 
L 120.740235 228.034718 
L 122.231547 235.687162 
L 122.529809 236.344087 
L 122.828072 236.570925 
L 122.977203 236.505146 
L 123.275466 235.950256 
L 123.573728 234.711739 
L 124.021122 231.280703 
L 124.617647 223.87953 
L 125.363303 214.333904 
L 125.661565 212.477089 
L 125.810697 212.255219 
L 125.959828 212.549759 
L 126.25809 214.67412 
L 126.705484 220.991495 
L 127.749403 237.989964 
L 128.196796 241.892186 
L 128.495059 243.181197 
L 128.793321 243.554184 
L 128.942452 243.379754 
L 129.240715 242.116837 
L 129.538977 239.198456 
L 129.83724 234.048897 
L 130.284633 221.530191 
L 131.477683 181.727572 
L 131.626815 180.050263 
L 131.775946 179.753606 
L 131.925077 180.886471 
L 132.223339 187.242866 
L 132.670733 204.389459 
L 133.565521 239.812515 
L 134.012914 248.444338 
L 134.311177 250.995106 
L 134.609439 251.949326 
L 134.75857 251.972976 
L 134.907702 251.667979 
L 135.056833 250.938604 
L 135.355095 247.560772 
L 135.653358 240.269386 
L 135.95162 227.629397 
L 136.399014 198.207546 
L 137.293801 133.041836 
L 137.592064 124.562704 
L 137.741195 124.641695 
L 137.890326 127.705794 
L 138.188589 142.062268 
L 138.785114 190.75924 
L 139.381639 234.971088 
L 139.829032 251.652274 
L 140.127295 255.89979 
L 140.425557 257.24199 
L 140.574688 257.413245 
L 140.72382 257.380639 
L 140.872951 257.084939 
L 141.022082 256.338478 
L 141.171213 254.841921 
L 141.469476 248.050083 
L 141.767738 233.594799 
L 142.215132 194.016857 
L 143.259051 75.822781 
L 143.557313 64.510233 
L 143.706444 65.746702 
L 144.004707 81.781379 
L 144.4521 131.240768 
L 145.197757 221.026047 
L 145.64515 249.230374 
L 145.943413 256.483047 
L 146.241675 258.480931 
L 146.539938 258.679068 
L 146.689069 258.660801 
L 146.8382 258.507556 
L 146.987331 257.948642 
L 147.136463 256.56343 
L 147.434725 249.203388 
L 147.732988 232.321715 
L 148.180381 185.01175 
L 149.2243 48.303568 
L 149.522562 37.55856 
L 149.671694 40.286951 
L 149.969956 61.11699 
L 150.41735 119.605198 
L 151.163006 219.459012 
L 151.6104 249.203388 
L 151.908662 256.56343 
L 152.206925 258.507556 
L 152.505187 258.679068 
L 152.654318 258.652116 
L 152.803449 258.480931 
L 152.952581 257.893615 
L 153.101712 256.483047 
L 153.399974 249.230374 
L 153.698237 233.088884 
L 154.145631 189.36494 
L 155.189549 71.613118 
L 155.33868 65.746702 
L 155.487812 64.510233 
L 155.636943 67.948659 
L 155.935205 87.631981 
L 156.53173 157.942238 
L 157.128255 222.799 
L 157.575649 248.050083 
L 157.873911 254.841921 
L 158.172174 257.084939 
L 158.321305 257.380639 
L 158.470436 257.413245 
L 158.619567 257.24199 
L 158.768699 256.797814 
L 158.91783 255.89979 
L 159.216092 251.652274 
L 159.514355 242.192226 
L 159.961749 215.454854 
L 161.154798 127.705794 
L 161.30393 124.641695 
L 161.453061 124.562704 
L 161.602192 127.431863 
L 161.900455 141.03486 
L 162.496979 186.37749 
L 163.093504 227.629397 
L 163.540898 244.507708 
L 163.839161 249.633675 
L 164.137423 251.667979 
L 164.286554 251.972976 
L 164.435685 251.949326 
L 164.584817 251.631458 
L 164.883079 249.967606 
L 165.181342 246.309194 
L 165.479604 239.812515 
L 165.926998 224.198054 
L 166.970916 183.418967 
L 167.269179 179.753606 
L 167.41831 180.050263 
L 167.567441 181.727572 
L 167.865704 188.675024 
L 168.61136 216.230515 
L 169.207885 234.048897 
L 169.655279 240.901882 
L 169.953541 242.919479 
L 170.251804 243.554184 
L 170.400935 243.48148 
L 170.699197 242.655295 
L 170.99746 240.872608 
L 171.444853 236.111643 
L 172.041378 226.303625 
L 172.787034 214.67412 
L 173.085297 212.549759 
L 173.234428 212.255219 
L 173.383559 212.477089 
L 173.681822 214.333904 
L 174.129216 219.647527 
L 175.024003 231.280703 
L 175.471397 234.711739 
L 175.769659 235.950256 
L 176.067922 236.505146 
L 176.217053 236.570925 
L 176.515315 236.344087 
L 176.813578 235.687162 
L 177.260971 233.965074 
L 178.006628 229.738029 
L 178.603152 226.643406 
L 178.901415 225.744785 
L 179.199677 225.439116 
L 179.348809 225.512364 
L 179.647071 226.064343 
L 180.094465 227.629507 
L 181.138383 231.730199 
L 181.585777 232.770001 
L 182.033171 233.255909 
L 182.331433 233.304088 
L 182.629696 233.155585 
L 183.077089 232.599163 
L 183.673614 231.341164 
L 184.866664 228.527229 
L 185.164927 228.19016 
L 185.463189 228.125888 
L 185.761452 228.350504 
L 186.208845 229.168435 
L 187.849289 233.112571 
L 188.296683 233.484561 
L 188.594945 233.479015 
L 188.893207 233.243083 
L 189.19147 232.736781 
L 189.638864 231.384229 
L 190.235389 228.528933 
L 190.981045 224.776499 
L 191.279307 223.969734 
L 191.428438 223.826659 
L 191.57757 223.877925 
L 191.875832 224.572789 
L 192.323226 226.885596 
L 193.516276 234.439853 
L 193.963669 235.866715 
L 194.261932 236.29658 
L 194.560194 236.323726 
L 194.858457 235.870998 
L 195.156719 234.76533 
L 195.454982 232.79302 
L 195.902375 227.944359 
L 197.244556 210.737743 
L 197.393688 210.413102 
L 197.542819 210.657757 
L 197.841081 212.829305 
L 198.288475 219.426949 
L 199.183262 234.446493 
L 199.630656 238.570099 
L 199.928919 239.921565 
L 200.227181 240.502488 
L 200.376312 240.567911 
L 200.525444 240.480369 
L 200.674575 240.208168 
L 200.972837 238.872538 
L 201.2711 235.94975 
L 201.569362 230.829615 
L 202.016756 218.668839 
L 203.060674 187.273478 
L 203.358937 185.160347 
L 203.508068 186.006518 
L 203.806331 191.360756 
L 204.253724 206.090411 
L 204.99938 231.987373 
L 205.446774 240.339387 
L 205.745037 242.735955 
L 206.043299 243.626383 
L 206.341562 243.800199 
L 206.490693 243.693602 
L 206.639824 243.390341 
L 206.938086 241.687039 
L 207.236349 237.386658 
L 207.534611 229.204857 
L 207.982005 208.869803 
L 208.876793 161.262176 
L 209.175055 154.585717 
L 209.324186 154.356741 
L 209.473317 156.285093 
L 209.77158 166.090951 
L 210.368105 200.077108 
L 210.96463 230.65294 
L 211.412023 241.693324 
L 211.710286 244.197002 
L 212.008548 244.785684 
L 212.306811 244.827327 
L 212.455942 244.769029 
L 212.605073 244.551542 
L 212.754205 243.995081 
L 213.052467 240.890114 
L 213.350729 233.433159 
L 213.648992 220.268403 
L 214.245517 179.796758 
L 214.842042 142.550662 
L 215.140304 135.33638 
L 215.289435 135.692178 
L 215.438567 138.72144 
L 215.736829 151.921222 
L 217.228141 239.208025 
L 217.526404 243.51926 
L 217.824666 244.752919 
L 218.122929 244.876377 
L 218.421191 244.835862 
L 218.570323 244.64674 
L 218.719454 244.114147 
L 218.868585 242.991769 
L 219.166847 237.926011 
L 219.46511 227.722341 
L 219.912504 202.372422 
L 220.807291 147.853918 
L 221.105553 142.277803 
L 221.254685 143.199405 
L 221.552947 152.125234 
L 222.000341 178.258782 
L 222.745997 224.29831 
L 223.193391 238.900477 
L 223.491653 242.949912 
L 223.789916 244.307776 
L 224.088178 244.540942 
L 224.386441 244.364971 
L 224.535572 244.039748 
L 224.684703 243.388721 
L 224.982966 240.414727 
L 225.281228 234.142008 
L 225.728622 217.543857 
L 226.77254 173.005532 
L 227.070803 169.959541 
L 227.219934 170.990534 
L 227.518196 177.762218 
L 227.96559 196.055033 
L 228.711246 227.38638 
L 229.15864 237.672263 
L 229.456902 240.842349 
L 229.755165 242.126023 
L 230.053427 242.391258 
L 230.202559 242.289072 
L 230.500821 241.589119 
L 230.799084 239.856967 
L 231.097346 236.515586 
L 231.54474 227.853076 
L 232.73779 200.798264 
L 232.886921 199.783428 
L 233.036052 199.643771 
L 233.185183 200.369096 
L 233.483446 204.14163 
L 234.079971 217.255975 
L 234.676496 229.801381 
L 235.123889 235.398112 
L 235.422152 237.305552 
L 235.720414 238.167243 
L 236.018677 238.326431 
L 236.316939 237.957705 
L 236.615202 237.045465 
L 236.913464 235.468739 
L 237.360858 231.709836 
L 238.553908 219.790575 
L 238.85217 218.826033 
L 239.001301 218.851161 
L 239.150433 219.204554 
L 239.448695 220.77083 
L 240.04522 225.906006 
L 240.790876 231.751406 
L 241.23827 233.636079 
L 241.536532 234.245652 
L 241.834795 234.459663 
L 242.133057 234.364096 
L 242.43132 234.003283 
L 242.878713 232.992762 
L 243.475238 230.918912 
L 244.220894 228.267729 
L 244.668288 227.461873 
L 244.966551 227.421707 
L 245.264813 227.757424 
L 245.712207 228.760825 
L 246.756125 231.345613 
L 247.203519 231.945524 
L 247.650913 232.192735 
L 248.098306 232.162523 
L 248.694831 231.80635 
L 250.633537 230.214525 
L 251.080931 230.248941 
L 251.677456 230.537334 
L 252.870506 231.194899 
L 253.616162 231.338405 
L 254.510949 231.262081 
L 256.897049 230.90376 
L 261.221855 231.06356 
L 261.221855 231.06356 
" clip-path="url(#p9bd5a0e8a1)" style="fill: none; stroke: #1f77b4; stroke-width: 1.5; stroke-linecap: square"/>
   </g>
  </g>
 </g>
 <defs>
  <clipPath id="p9bd5a0e8a1">
   <rect x="7.788333" y="3.00024" width="277.211427" height="274.244711"/>
  </clipPath>
 </defs>
</svg>
